:version 1.10
:name ASF
:units
  mass 1
  length 1
  angle deg
:documentation
  ASF file generated by Kaydara
:root
  axis xyz
  order  tx ty tz rx ry rz
  position 0 0 0
  orientation 0 0 0
:bonedata
  begin
    id 1
    name RightUpLegDummy
    direction -1 2.30186e-007 8.31532e-007
    length 4.46685
    axis 0 0 0 xyz
  end
  begin
    id 2
    name RightUpLeg
    direction -2.30187e-007 -1 1.24343e-010
    length 16.4045
    axis -3.49089 -0.000906625 0.000286804 xyz
    dof rx ry rz
  end
  begin
    id 3
    name RightLeg
    direction -2.30181e-007 -1 -4.17157e-009
    length 17.5097
    axis 3.68512 0.0193738 -0.131023 xyz
    dof rx ry rz
  end
  begin
    id 4
    name RightFoot
    direction 8.31421e-007 -4.51202e-011 1
    length 6.49508
    axis 4.81691e-005 -0.120479 -0.188788 xyz
    dof rx ry rz
  end
  begin
    id 5
    name RightToes
    direction 0.00124746 -0.014064 0.9999
    length 3.85082
    axis 0.000481921 0.542163 -0.142578 xyz
    dof rx ry rz
  end
  begin
    id 6
    name SpineDummy
    direction 0.0717043 0.9409 -0.331007
    length 10.0032
    axis 0 0 0 xyz
  end
  begin
    id 7
    name Spine
    direction 2.30186e-007 1 4.58806e-011
    length 9.84055
    axis -0.001389 0.000121418 2.40972e-006 xyz
    dof rx ry rz
  end
  begin
    id 8
    name Spine1
    direction 0 0 0
    length 0
    axis -0.001389 0.000121451 1.30017e-006 xyz
    dof rx ry rz
  end
  begin
    id 9
    name HEadDummy
    direction -0.00347485 0.950688 -0.310128
    length 8.00997
    axis -0.001389 0.000121451 1.30017e-006 xyz
  end
  begin
    id 10
    name HEad
    direction -0.0222688 0.980941 0.193023
    length 5.12695
    axis -0.001389 0.000121451 1.30017e-006 xyz
    dof rx ry rz
  end
  begin
    id 11
    name LeftShoulder1Dummy
    direction 0.988871 0.146793 -0.0242004
    length 3.5792
    axis -0.001389 0.000121451 1.30017e-006 xyz
  end
  begin
    id 12
    name LeftShoulder1
    direction 0.993832 0.108932 0.020779
    length 4.16823
    axis -0.001389 0.000121451 1.30017e-006 xyz
    dof rx ry rz
  end
  begin
    id 13
    name LeftArm
    direction 1 3.44807e-006 -8.31404e-007
    length 9.91437
    axis -23.1894 0.134784 0.967509 xyz
    dof rx ry rz
  end
  begin
    id 14
    name LeftForeArm
    direction 1 3.44842e-006 -8.31581e-007
    length 9.08575
    axis -9.91835 -0.06569 -0.177793 xyz
    dof rx ry rz
  end
  begin
    id 15
    name LeftHand
    direction 0.992938 -0.0411636 0.11126
    length 5.32135
    axis -0.00960232 -0.00340091 0.185173 xyz
    dof rx ry rz
  end
  begin
    id 16
    name RightShoulderDummy
    direction -0.988871 0.146793 -0.0241962
    length 3.5792
    axis -0.001389 0.000121451 1.30017e-006 xyz
  end
  begin
    id 17
    name RightShoulder
    direction -0.993832 0.108933 0.0207785
    length 4.16823
    axis 0.215806 0.000203643 -0.0068026 xyz
    dof rx ry rz
  end
  begin
    id 18
    name RightArm
    direction -1 3.90912e-006 8.31284e-007
    length 9.91437
    axis -23.2009 -0.134239 -0.964101 xyz
    dof rx ry rz
  end
  begin
    id 19
    name RightForeArm
    direction -1 3.90882e-006 8.31502e-007
    length 9.08575
    axis -9.92322 0.0658061 0.178867 xyz
    dof rx ry rz
  end
  begin
    id 20
    name RightHand
    direction -0.992843 -0.0414603 0.112003
    length 5.28593
    axis -0.00960638 0.00330671 -0.185228 xyz
    dof rx ry rz
  end
  begin
    id 21
    name LeftUpLegDummy
    direction 1 -2.30186e-007 -8.31532e-007
    length 4.46685
    axis 0 0 0 xyz
  end
  begin
    id 22
    name LeftUpLeg
    direction -2.30187e-007 -1 6.00931e-010
    length 16.4045
    axis -3.48766 0.00143442 -0.000524262 xyz
    dof rx ry rz
  end
  begin
    id 23
    name LeftLeg
    direction -2.30187e-007 -1 1.6669e-009
    length 17.5097
    axis 3.68178 -0.00654042 -0.000285133 xyz
    dof rx ry rz
  end
  begin
    id 24
    name LeftFoot
    direction 8.31532e-007 -4.54478e-011 1
    length 6.49508
    axis 1.87233e-006 4.66016e-005 -8.6538e-006 xyz
    dof rx ry rz
  end
  begin
    id 25
    name LeftToes
    direction 0.00818058 -0.00485161 0.999955
    length 3.85048
    axis 1.06247e-005 4.65869e-005 -8.65513e-006 xyz
    dof rx ry rz
  end
:hierarchy
  begin
    root RightUpLegDummy SpineDummy LeftUpLegDummy
    RightUpLegDummy RightUpLeg
    RightUpLeg RightLeg
    RightLeg RightFoot
    RightFoot RightToes
    SpineDummy Spine
    Spine Spine1
    Spine1 HEadDummy LeftShoulder1Dummy RightShoulderDummy
    HEadDummy HEad
    LeftShoulder1Dummy LeftShoulder1
    LeftShoulder1 LeftArm
    LeftArm LeftForeArm
    LeftForeArm LeftHand
    RightShoulderDummy RightShoulder
    RightShoulder RightArm
    RightArm RightForeArm
    RightForeArm RightHand
    LeftUpLegDummy LeftUpLeg
    LeftUpLeg LeftLeg
    LeftLeg LeftFoot
    LeftFoot LeftToes
  end

:SAMPLES-PER-SECOND 30
:FULLY-SPECIFIED
:DEGREES
141
root  -14.506 32.8111 2.34228 9.73506 -1.23808 -2.09169
RightUpLeg  -14.7486 -2.96024 2.35873
RightLeg  29.0389 -3.61762 -1.71997
RightFoot  -7.98767 0.0309431 0.820811
RightToes  -36.6021 -0.191924 -0.295135
Spine  9.69306 0.915391 -1.99208
Spine1  17.9001 3.90174 -6.76073
HEad  -32.4606 -51.9875 67.0661
LeftShoulder1  0 -2.42657e-020 -4.95415e-022
LeftArm  -44.1926 3.81722 -76.8734
LeftForeArm  38.9119 -24.4149 -4.5743
LeftHand  0.138431 -4.45064 -3.93738
RightShoulder  0 2.42657e-020 1.07489e-018
RightArm  11.9452 11.9628 96.7638
RightForeArm  48.1532 30.7006 5.98394
RightHand  1.27505 25.8266 5.92852
LeftUpLeg  -39.6069 -4.83493 16.6775
LeftLeg  32.2803 -1.95827 -1.07134
LeftFoot  -7.27803 0.0178217 0.280214
LeftToes  -21.6122 1.28829e-006 1.15665e-007
142
root  -13.7386 32.5541 2.54449 10.2772 -4.36708 -1.86653
RightUpLeg  -17.8317 -2.562 0.291878
RightLeg  33.6202 -1.18028 -0.692455
RightFoot  -8.52466 0.0149489 0.578174
RightToes  -41.2991 -0.228943 -0.322342
Spine  10.1025 1.82017 -1.81773
Spine1  18.4899 6.06393 -6.91253
HEad  -32.4898 -49.9811 67.3788
LeftShoulder1  0 -2.42657e-020 -4.95415e-022
LeftArm  -42.6864 1.44419 -75.7335
LeftForeArm  37.1042 -27.0294 -5.14665
LeftHand  0.110953 -4.15061 -3.43689
RightShoulder  0 2.42657e-020 1.07489e-018
RightArm  10.3851 14.9046 95.6015
RightForeArm  48.0427 28.658 5.50357
RightHand  1.00905 25.8703 4.76243
LeftUpLeg  -40.6697 -6.55891 19.7743
LeftLeg  29.7652 -1.63009 -0.801508
LeftFoot  -7.70956 0.0115003 0.170668
LeftToes  -19.7086 1.28829e-006 1.15665e-007
143
root  -12.9281 32.2465 2.75821 11.1377 -7.38109 -2.11047
RightUpLeg  -21.2762 -2.56702 -1.36526
RightLeg  38.0418 1.19012 0.79423
RightFoot  -8.50208 -0.0055607 0.302764
RightToes  -46.0875 -0.268846 -0.346864
Spine  10.5119 2.44119 -1.40646
Spine1  19.1109 7.80808 -7.0734
HEad  -31.8554 -48.085 66.2871
LeftShoulder1  0 -2.42657e-020 -4.95415e-022
LeftArm  -41.2744 0.161331 -74.7271
LeftForeArm  35.1059 -31.1382 -6.10399
LeftHand  0.0662032 -3.87719 -2.32984
RightShoulder  0 2.42657e-020 1.07489e-018
RightArm  7.79023 18.3303 94.649
RightForeArm  49.499 26.0099 4.90601
RightHand  0.685012 26.0397 3.3326
LeftUpLeg  -41.7219 -8.15348 23.2819
LeftLeg  27.4366 -3.03278 -1.33724
LeftFoot  -8.26539 0.0229595 0.317748
LeftToes  -18.5426 1.28829e-006 1.15665e-007
144
root  -11.973 31.9397 3.05943 12.0567 -9.92661 -2.47012
RightUpLeg  -23.9228 -3.18142 -3.24798
RightLeg  41.0396 3.86182 2.91911
RightFoot  -8.13378 -0.0296128 -0.0389474
RightToes  -51.2478 -0.313976 -0.369462
Spine  10.8775 2.68977 -0.817713
Spine1  19.7871 8.70942 -6.81367
HEad  -31.6723 -47.0247 65.263
LeftShoulder1  0 -2.42657e-020 -4.95415e-022
LeftArm  -38.4621 -0.75344 -73.7171
LeftForeArm  33.3137 -34.4666 -6.94431
LeftHand  0.012253 -4.30232 -0.697268
RightShoulder  0 2.42657e-020 1.07489e-018
RightArm  1.40011 21.176 93.8262
RightForeArm  52.2339 23.318 4.32408
RightHand  0.0732237 25.8462 0.689295
LeftUpLeg  -42.1769 -8.97347 25.5792
LeftLeg  24.8021 -5.8051 -2.24037
LeftFoot  -8.47837 0.0501941 0.677155
LeftToes  -20.9026 1.28829e-006 1.15665e-007
145
root  -10.8713 31.6685 3.50874 12.8092 -11.7509 -2.99573
RightUpLeg  -24.8349 -4.14669 -5.14634
RightLeg  41.6544 6.14267 4.74987
RightFoot  -7.93016 -0.0513773 -0.363694
RightToes  -55.2848 -0.350591 -0.384255
Spine  11.1253 2.53153 -0.00327929
Spine1  20.4493 8.52996 -5.78288
HEad  -32.0065 -47.0002 64.6338
LeftShoulder1  0 -2.42657e-020 -4.95415e-022
LeftArm  -35.7388 -1.78005 -73.2657
LeftForeArm  33.714 -36.2688 -7.42739
LeftHand  -0.0254301 -4.38664 0.294503
RightShoulder  0 2.42657e-020 1.07489e-018
RightArm  -7.01359 22.9262 92.231
RightForeArm  53.0871 21.5152 3.94967
RightHand  -0.585855 24.7728 -2.29774
LeftUpLeg  -42.0663 -7.79364 25.2841
LeftLeg  23.9172 -9.20417 -3.37728
LeftFoot  -7.8884 0.0746266 1.08231
LeftToes  -22.8827 1.28829e-006 1.15665e-007
